<svg xmlns="http://www.w3.org/2000/svg" xmlns:xlink="http://www.w3.org/1999/xlink" width="263.001" height="96.568" viewBox="0 0 263.001 96.568">
  <defs>
    <linearGradient id="linear-gradient" x1="1" y1="0.225" x2="0" y2="0.606" gradientUnits="objectBoundingBox">
      <stop offset="0" stop-color="#0d79d1"/>
      <stop offset="1" stop-color="#4622ba"/>
    </linearGradient>
    <clipPath id="clip-path">
      <path id="Path_45525" data-name="Path 45525" d="M22.007,0,0,22.315H44.524L66.531,0Z" transform="translate(0 -0.001)" fill="#582020"/>
    </clipPath>
    <linearGradient id="linear-gradient-2" x1="0" y1="1" x2="1" y2="0" xlink:href="#linear-gradient"/>
  </defs>
  <g id="Group_28506" data-name="Group 28506" transform="translate(-83 -267)">
    <g id="Group_28408" data-name="Group 28408" transform="translate(-11 102)">
      <rect id="Rectangle_11830" data-name="Rectangle 11830" width="96.568" height="96.568" rx="27" transform="translate(94 165)" fill="#fff"/>
      <g id="Group_26709" data-name="Group 26709" transform="translate(109.363 184.752)">
        <g id="Group_26697" data-name="Group 26697" transform="translate(0)">
          <g id="Group_26691" data-name="Group 26691" transform="translate(0 0)">
            <g id="Group_26690" data-name="Group 26690">
              <path id="Path_45527" data-name="Path 45527" d="M-8917.627-7167.028v38.45l22.784-16.567v-27Z" transform="translate(8939.633 7186.373)" fill="url(#linear-gradient)"/>
              <g id="Group_26688" data-name="Group 26688" transform="translate(0.001 0.12)" style="isolation: isolate">
                <g id="Group_26687" data-name="Group 26687" transform="translate(0 0)" clip-path="url(#clip-path)">
                  <rect id="Rectangle_11805" data-name="Rectangle 11805" width="70.152" height="40.907" transform="matrix(0.956, -0.294, 0.294, 0.956, -6.276, 1.933)" fill="#582020"/>
                </g>
              </g>
              <path id="Path_45526" data-name="Path 45526" d="M-8933-7159.649l21.884-22.408,44.927-.025-22.341,22.433Z" transform="translate(8932.998 7182.082)" fill="url(#linear-gradient-2)"/>
            </g>
          </g>
        </g>
      </g>
      <g id="Group_26696" data-name="Group 26696" transform="translate(215.493 191.549)" style="isolation: isolate">
        <path id="Path_45520" data-name="Path 45520" d="M116.713,17.88v7.073h-12.6V57.816H96.188V24.953h-12.6V17.88Z" transform="translate(-83.589 -17.88)"/>
        <path id="Path_45521" data-name="Path 45521" d="M150.05,48.241a7.261,7.261,0,0,0,5.586-2.283A8.252,8.252,0,0,0,157.8,40.14a8.249,8.249,0,0,0-2.167-5.819,7.91,7.91,0,0,0-11.118,0,8.255,8.255,0,0,0-2.166,5.819,8.257,8.257,0,0,0,2.166,5.819,7.23,7.23,0,0,0,5.531,2.283m8.723-22.194h6.557V54.232h-6.557l-.513-3.425a12.427,12.427,0,0,1-9.748,4.052,12.862,12.862,0,0,1-9.865-4.108,14.885,14.885,0,0,1-3.818-10.611,14.882,14.882,0,0,1,3.818-10.611,12.863,12.863,0,0,1,9.865-4.109c4.161,0,7.411,1.313,9.748,3.994Z" transform="translate(-59.227 -14.295)"/>
        <path id="Path_45522" data-name="Path 45522" d="M181.354,25.845h8.211L171.947,66.637H163.8l5.588-12.95L158.321,25.845h8.153l4.162,11.011,2.964,8.615,3.25-8.615Z" transform="translate(-48.057 -14.093)"/>
        <path id="Path_45523" data-name="Path 45523" d="M128.241,39.045a7.281,7.281,0,0,0,5.359-1.939,6.71,6.71,0,0,0,1.939-5.079,6.93,6.93,0,0,0-1.939-5.135,7.492,7.492,0,0,0-5.359-1.883h-10.6V39.045Zm.342-21.165c4.5,0,8.153,1.256,10.833,3.823a13.581,13.581,0,0,1,4.049,10.269,13.581,13.581,0,0,1-4.049,10.269c-2.679,2.567-6.328,3.879-10.833,3.879H117.695v11.7h-7.869V17.88Z" transform="translate(-71.114 -17.88)"/>
      </g>
    </g>
  </g>
</svg>
