<svg width="64" height="64" viewBox="0 0 64 64" fill="none" xmlns="http://www.w3.org/2000/svg">
<path d="M22.4995 63.995C22.4995 57.9374 22.4995 51.8781 22.4762 45.8205C22.4762 45.153 22.7912 45.0913 23.3245 45.093C30.2476 45.103 37.1713 45.103 44.0955 45.093C45.0455 45.093 45.0455 45.093 45.0455 44.1418C45.0455 37.2298 45.0455 30.3178 45.0455 23.4058C45.0455 22.5113 45.0455 22.5046 45.9505 22.5046L63.915 22.518C63.915 36.1751 63.9189 49.8322 63.9266 63.4894C63.9266 63.9166 63.8433 64 63.4166 64C49.7781 63.99 36.1391 63.9883 22.4995 63.995Z" fill="white"/>
<path d="M0 20.7193C0 14.0977 0 7.47827 0 0.861085C0 0.00334324 2.11392e-05 0 0.854997 0H40.5889C41.4688 0 41.4738 -3.26248e-06 41.4738 0.914476V18.0276C41.4738 18.9337 41.4739 18.9371 40.5756 18.9371H19.8078C18.9195 18.9371 18.9178 18.9371 18.9178 19.8232C18.9178 26.7552 18.9178 33.6878 18.9178 40.6209C18.9178 41.5187 18.9178 41.5237 18.0145 41.5237H0.918309C0.00166825 41.5237 0 41.5237 0 40.5792V20.7193Z" fill="white"/>
<path d="M31.9826 41.5219H23.3778C22.5062 41.5219 22.4879 41.5052 22.4879 40.6658C22.4879 34.902 22.4879 29.1375 22.4879 23.3725C22.4879 22.5381 22.5062 22.5114 23.3745 22.5114H40.5823C41.4673 22.5114 41.474 22.5114 41.474 23.4309V40.5991C41.474 41.5203 41.474 41.5219 40.524 41.5236L31.9826 41.5219Z" fill="white"/>
</svg>
