<svg width="75" height="80" viewBox="0 0 75 80" fill="none" xmlns="http://www.w3.org/2000/svg">
<path d="M37.4296 14.6343C40.9432 14.6355 44.4219 15.3328 47.6651 16.6861C50.9084 18.0394 53.8522 20.022 56.3268 22.5195C58.8014 25.0171 60.758 27.9802 62.0838 31.2383C63.4096 34.4963 64.0785 37.9849 64.0518 41.5029C63.9738 56.6811 51.4086 68.2227 37.3248 68.1251C22.6219 68.025 10.6685 56.1417 10.7124 41.4151C10.7587 26.0929 23.2094 14.4561 37.4296 14.6343ZM34.5314 33.9297C34.5314 36.5168 34.5095 39.1038 34.5314 41.6884C34.5534 43.6726 35.7014 44.8051 37.6539 44.8099C41.2402 44.823 44.8266 44.823 48.4129 44.8099C48.777 44.8193 49.1407 44.7816 49.4951 44.6977C50.1452 44.5154 50.7087 44.106 51.0834 43.5437C51.4581 42.9814 51.6192 42.3033 51.5377 41.6323C51.4463 40.9797 51.1267 40.3808 50.6357 39.942C50.1448 39.5032 49.5144 39.2529 48.8565 39.2356C46.302 39.2014 43.7378 39.2063 41.1955 39.2356C40.5008 39.2356 40.2205 39.0135 40.2205 38.2886C40.2595 36.7974 40.2205 35.3062 40.2205 33.815C40.2205 31.228 40.2376 28.6409 40.2205 26.0539C40.2287 25.3625 40.0029 24.6886 39.5797 24.1422C39.1566 23.5957 38.5611 23.2089 37.8903 23.0446C36.7496 22.7835 35.4187 23.4522 34.863 24.5846C34.6114 25.141 34.4937 25.7487 34.5193 26.3589C34.5461 28.8777 34.529 31.4037 34.5314 33.9297Z" fill="white"/>
<path d="M69.129 41.6808C69.3362 26.1146 57.9166 13.2624 43.0919 10.4411C42.4898 10.3263 42.2315 10.4411 42.1169 11.0951C41.8731 12.3862 41.0371 13.1599 39.7842 13.5138C38.5655 13.8555 37.6636 13.3893 36.8592 12.5375C35.6053 11.2105 34.4378 9.8043 33.3639 8.32749C32.1842 6.6996 32.4011 5.20351 33.9245 3.93439C35.114 2.94107 36.284 1.92334 37.4662 0.915365C38.4997 0.0343055 39.6599 -0.30494 40.9225 0.319856C42.1851 0.944651 42.7384 2.0893 42.5069 3.50973C42.3948 4.19066 42.8311 4.17602 43.2527 4.24191C48.521 5.11217 53.5448 7.09199 57.9922 10.0506C67.2546 16.2521 72.9827 24.8431 74.567 35.9039C76.2269 47.4675 73.0875 57.8303 65.602 66.7556C59.5595 73.9579 51.6231 77.8287 42.3826 79.0783C22.678 81.7385 4.51878 68.364 0.765067 48.9026C-1.81866 35.4792 2.20804 23.9596 11.841 14.368C14.823 11.4399 18.3116 9.07894 22.1369 7.40006C23.3556 6.85336 24.5134 6.91194 25.5323 7.83693C26.4463 8.65942 26.7071 9.98467 26.2635 11.2001C25.9467 12.086 25.23 12.5034 24.4452 12.8841C19.1194 15.4426 14.5926 19.4089 11.3535 24.355C7.57781 30.0587 5.70094 36.353 6.07631 43.1916C6.92943 58.7382 18.5075 70.6679 32.4011 72.7546C43.0163 74.3508 52.2787 71.3196 59.969 63.8391C65.1389 58.809 68.0419 52.5733 68.9316 45.3979C69.0998 44.0507 69.0803 42.7156 69.129 41.6808Z" fill="white"/>
</svg>
