<svg width="73" height="73" viewBox="0 0 73 73" fill="none" xmlns="http://www.w3.org/2000/svg">
<path d="M14.0146 0H20.5555C22.744 0.462236 24.8585 1.12611 26.8 2.28265C31.0574 4.80307 33.9128 8.5409 36.0462 12.9122C36.1659 13.1557 36.2039 13.4619 36.4793 13.6217C36.7472 13.4809 36.7814 13.1994 36.8897 12.9749C38.2974 10.0417 40.0794 7.37484 42.4294 5.10742C45.2411 2.39677 48.5885 0.732356 52.4089 0.00761625H58.9517C59.837 0.262512 60.7413 0.452716 61.6114 0.798917C66.2487 2.66498 68.1143 7.19225 66.0834 11.7537C64.6795 14.9019 62.2535 17.1256 59.4342 18.9707C58.1812 19.7538 56.8776 20.4529 55.5321 21.0631C55.8304 21.2419 56.102 21.1658 56.3395 21.1658C59.8705 21.1658 63.4016 21.1658 66.9326 21.1658C70.1356 21.1658 71.872 22.427 72.9036 25.48V35.3049C71.7637 38.4245 70.0786 39.5963 66.7426 39.5963H39.8514C38.7116 39.5963 38.7116 39.5963 38.7116 38.455C38.7116 34.1141 38.7116 29.772 38.7116 25.4287C38.7116 24.5423 38.6755 24.5118 37.7807 24.5118C36.9277 24.5118 36.0709 24.5118 35.2217 24.5118C34.3041 24.5118 34.2718 24.5404 34.2718 25.48V38.5063C34.2718 39.5811 34.2718 39.5887 33.2136 39.5887C29.233 39.5887 25.2517 39.5887 21.2698 39.5887C16.1043 39.5887 10.937 39.5754 5.77152 39.5887C1.92449 39.6001 -0.142445 36.5242 0.00763687 33.8098C0.126373 31.5109 0.126373 29.2075 0.00763687 26.9086C-0.144344 23.8232 2.33104 21.0764 5.76392 21.1392C9.38867 21.2039 13.0153 21.1544 16.6401 21.1392C16.8889 21.1392 17.1511 21.2096 17.4418 21.0498C16.5299 20.5781 15.637 20.1577 14.7821 19.6688C11.6893 17.8998 8.99353 15.697 7.27044 12.4937C4.57657 7.48519 6.59032 2.37776 11.9705 0.54974C12.6373 0.353813 13.3307 0.190221 14.0146 0ZM17.8331 4.53485C17.1511 4.39409 16.3 4.54437 15.4565 4.63377C14.2502 4.76122 13.0723 5.05227 12.0654 5.78842C11.0016 6.56642 10.5931 7.60122 10.8838 8.90423C11.1935 10.2966 11.9686 11.4208 12.9184 12.4347C14.993 14.6451 17.5729 16.0736 20.3598 17.156C24.3949 18.7253 28.6086 19.4177 32.9097 19.684C33.5233 19.7221 33.4416 19.4101 33.3238 19.0201C32.4423 16.1193 31.2341 13.3687 29.4388 10.913C26.6025 7.04957 22.8865 4.75551 17.8331 4.53866V4.53485ZM55.5169 4.51393C51.497 4.80877 49.0767 5.65525 46.7571 7.52702C42.9974 10.5477 40.9818 14.6546 39.6026 19.1514C39.4696 19.5851 39.6311 19.703 40.0528 19.6783C42.6758 19.5442 45.2821 19.1807 47.8418 18.5922C51.8181 17.641 55.591 16.2296 58.8016 13.5989C60.0422 12.5831 61.1079 11.4094 61.7519 9.91239C62.7018 7.71154 62.0027 6.05472 59.7743 5.1797C58.2507 4.58431 56.6492 4.49681 55.5226 4.51774L55.5169 4.51393Z" fill="white"/>
<path d="M38.704 58.4418C38.704 53.9348 38.704 49.4285 38.704 44.9228C38.704 43.9717 38.7192 43.9584 39.6539 43.9584H65.9485C66.8737 43.9584 66.9345 44.0098 66.9345 44.9095C66.9345 52.3814 66.9345 59.8532 66.9345 67.3251C66.9345 71.101 63.8759 73.0317 61.2086 72.9936C54.0807 72.8966 46.949 72.9613 39.8191 72.9613C38.7116 72.9613 38.7097 72.9613 38.7097 71.82C38.7046 67.3612 38.7027 62.9018 38.704 58.4418Z" fill="white"/>
<path d="M34.2623 58.4625C34.2623 62.9917 34.2472 67.5227 34.2775 72.0538C34.2775 72.7785 34.0553 72.9763 33.3467 72.9744C26.1921 72.9516 19.0376 72.8812 11.8793 72.9992C8.99545 73.0467 5.99002 70.9695 6.01472 67.0909C6.05841 60.593 6.0261 54.0931 6.0261 47.5933C6.0261 46.6422 6.0413 45.6911 6.0261 44.74C6.0147 44.1693 6.23509 43.9411 6.82402 43.943C15.7073 43.9544 24.5906 43.9544 33.4739 43.943C34.116 43.943 34.2699 44.2017 34.268 44.7933C34.2547 49.3528 34.2623 53.9086 34.2623 58.4625Z" fill="white"/>
</svg>
