<svg width="83" height="83" viewBox="0 0 83 83" fill="none" xmlns="http://www.w3.org/2000/svg">
<path d="M33.5916 58.4598C32.427 56.4313 31.3092 54.4788 30.1847 52.5285C24.5355 42.7347 18.9264 32.9186 13.2125 23.1627C10.4928 18.5183 13.0519 13.5097 17.2174 12.3793C18.7025 11.9525 20.2871 12.0311 21.7228 12.6027C23.1586 13.1743 24.3644 14.2067 25.1513 15.5381C27.2597 19.0455 29.2588 22.6199 31.307 26.1652L34.8188 32.2551C35.2315 31.4352 35.584 30.7159 36.1128 30.106C37.1778 28.8519 38.6497 28.0131 40.2704 27.7366C41.8911 27.46 43.5573 27.7634 44.9771 28.5936C45.5951 28.9421 45.7602 28.8348 46.0012 28.2071C47.728 23.7212 53.0537 22.2178 56.898 25.1264C57.391 25.4995 57.5829 25.5553 57.8953 24.9187C59.0711 22.5305 61.0813 21.2504 63.6962 21.1968C66.204 21.1454 68.2388 22.2714 69.5217 24.4763C73.0915 30.6131 76.7148 36.7253 80.1508 42.938C86.0833 53.6612 82.4667 66.8663 71.9491 73.1505C68.1763 75.4046 64.3923 77.6564 60.5146 79.7229C53.1987 83.6145 45.8673 83.3777 38.6964 79.2962C30.8607 74.8282 23.0786 70.2843 15.2696 65.7694C12.1929 63.9822 11.5704 61.1406 13.6097 58.2163C16.8225 53.612 22.6301 52.3342 27.4895 55.1579C29.2744 56.1915 31.0593 57.2199 32.8442 58.2431C32.9464 58.3301 33.0659 58.3944 33.1947 58.4317C33.3235 58.4691 33.4588 58.4786 33.5916 58.4598Z" fill="white"/>
<path d="M0.00434184 19.2153C-0.0135232 14.4404 1.75079 9.83116 4.95128 6.29139C8.15176 2.75163 12.5575 0.536755 17.3045 0.0811374C21.9974 -0.351533 26.6856 0.956596 30.4787 3.75709C34.2718 6.55758 36.9056 10.6554 37.8799 15.2723C38.2079 16.8361 37.4538 18.1765 36.0393 18.5361C34.5868 18.907 33.2281 18.0893 32.851 16.4853C32.2084 13.7621 31.0505 11.3159 29.0313 9.37006C24.9417 5.43153 20.0867 4.21178 14.7186 5.97886C9.39517 7.73254 6.22474 11.6063 5.34791 17.1332C4.59825 21.838 6.06855 25.9329 9.46656 29.2972C10.0422 29.8691 10.6491 30.4142 10.7807 31.2721C10.8754 31.7974 10.8043 32.3391 10.5772 32.822C10.35 33.3049 9.97818 33.7049 9.5134 33.9663C9.05091 34.2336 8.51615 34.3486 7.98481 34.2949C7.45348 34.2411 6.9525 34.0215 6.55272 33.6669C4.39857 31.8392 2.69958 29.5337 1.59067 26.9337C0.487667 24.5135 -0.0546234 21.8749 0.00434184 19.2153Z" fill="white"/>
</svg>
